<svg width="62" height="62" viewBox="0 0 62 62" fill="none" xmlns="http://www.w3.org/2000/svg">
<circle cx="31" cy="31" r="30" stroke="#0A47E5" stroke-width="2"/>
<path fill-rule="evenodd" clip-rule="evenodd" d="M38.847 10.2701C37.6269 8.57662 35.1061 8.57662 33.8859 10.2701C33.4574 10.865 33.2268 11.5795 33.2268 12.3126V23.1352H36.3946C36.5248 22.4935 37.0922 22.0106 37.7723 22.0106C37.8723 22.0106 37.9698 22.021 38.0638 22.0408L40.2296 17.5118H45.0828V36.7486C45.5794 36.9655 45.9264 37.461 45.9264 38.0375C45.9264 38.8139 45.2969 39.4433 44.5205 39.4433C43.7441 39.4433 43.1146 38.8139 43.1146 38.0375C43.1146 37.461 43.4616 36.9655 43.9581 36.7486V18.6365H40.9385L38.9894 22.7123C39.1095 22.9193 39.1782 23.1599 39.1782 23.4164C39.1782 24.1929 38.5488 24.8223 37.7723 24.8223C37.3124 24.8223 36.904 24.6014 36.6475 24.2599H33.2268V45.0668H35.8041V30.4458H42.2711V40.568H47.0511V29.2041C46.5545 28.9872 46.2075 28.4917 46.2075 27.9152C46.2075 27.1388 46.837 26.5093 47.6134 26.5093C48.3898 26.5093 49.0193 27.1388 49.0193 27.9152C49.0193 28.4917 48.6723 28.9872 48.1758 29.2041V41.6927H41.1464V31.5705H36.9288V46.1915H33.2268V49.7036C33.2268 50.4367 33.4574 51.1513 33.8859 51.7461C35.1061 53.4396 37.6269 53.4396 38.847 51.7461L39.5061 50.8312L39.782 51.1024C41.8407 53.1264 45.3246 51.7737 45.4782 48.8908L46.024 49.0946C48.5417 50.0346 51.1076 47.8306 50.5582 45.1999C53.1089 45.4738 54.7788 42.5973 53.2762 40.5181L52.902 40.0004C55.4178 39.1941 56.4038 36.1595 54.8424 34.0284L55.1864 33.8318C57.6241 32.4383 57.4217 28.8589 54.8424 27.7491C56.4038 25.6179 55.4178 22.5834 52.902 21.7771L53.2753 21.2062C54.5986 19.1828 52.9595 16.5345 50.5582 16.8163C51.4602 14.1623 48.7885 11.6961 46.215 12.8073L45.4782 13.1254L45.3533 12.5815C44.7324 9.87649 41.2825 9.05251 39.5061 11.185L38.847 10.2701Z" fill="#0A47E5"/>
<path fill-rule="evenodd" clip-rule="evenodd" d="M24.0543 10.3466C25.2745 8.65303 27.7953 8.65304 29.0154 10.3466C29.444 10.9414 29.6746 11.6559 29.6746 12.389V23.2117H26.5068C26.3765 22.57 25.8092 22.087 25.129 22.087C25.0291 22.087 24.9316 22.0974 24.8375 22.1172L22.6717 17.5882H17.8185V36.825C17.322 37.0419 16.975 37.5374 16.975 38.1139C16.975 38.8903 17.6044 39.5197 18.3809 39.5197C19.1573 39.5197 19.7867 38.8903 19.7867 38.1139C19.7867 37.5374 19.4397 37.0419 18.9432 36.825V18.7129H21.9629L23.912 22.7887C23.7919 22.9957 23.7232 23.2363 23.7232 23.4928C23.7232 24.2693 24.3526 24.8987 25.129 24.8987C25.589 24.8987 25.9974 24.6778 26.2538 24.3364H29.6746V45.1432H27.0973V30.5222H20.6303V40.6444H15.8503V29.2805C16.3468 29.0636 16.6938 28.5681 16.6938 27.9916C16.6938 27.2152 16.0644 26.5858 15.288 26.5858C14.5115 26.5858 13.8821 27.2152 13.8821 27.9916C13.8821 28.5681 14.2291 29.0636 14.7256 29.2805V41.7691H21.755V31.6469H25.9726V46.2679H29.6746V49.78C29.6746 50.5131 29.444 51.2277 29.0154 51.8225C27.7953 53.516 25.2745 53.516 24.0543 51.8225L23.3952 50.9076L23.1194 51.1788C21.0606 53.2028 17.5768 51.8501 17.4232 48.9672L16.8774 49.171C14.3597 50.111 11.7938 47.907 12.3431 45.2763C9.79247 45.5502 8.12254 42.6737 9.6252 40.5945L9.99936 40.0768C7.48352 39.2705 6.49755 36.2359 8.05894 34.1048L7.71498 33.9082C5.27723 32.5147 5.47963 28.9353 8.05894 27.8255C6.49755 25.6944 7.48352 22.6598 9.99936 21.8535L9.62604 21.2826C8.30273 19.2592 9.94188 16.6109 12.3431 16.8927C11.4411 14.2387 14.1129 11.7726 16.6863 12.8837L17.4232 13.2018L17.5481 12.658C18.169 9.95291 21.6189 9.12893 23.3952 11.2614L24.0543 10.3466Z" fill="#0A47E5"/>
</svg>
