<svg width="54" height="54" viewBox="0 0 54 54" fill="none" xmlns="http://www.w3.org/2000/svg">
<circle cx="27" cy="27" r="26" stroke="#0A47E5" stroke-width="2"/>
<mask id="path-2-inside-1_85_1366" fill="white">
<path fill-rule="evenodd" clip-rule="evenodd" d="M25.1906 27.1175L14.5952 37.713L16.5217 39.6394L27.1171 29.044L37.7125 39.6394L39.639 37.7129L29.0436 27.1175L39.6392 16.5219L37.7127 14.5955L27.1171 25.1911L16.5215 14.5955L14.595 16.5219L25.1906 27.1175Z"/>
</mask>
<path fill-rule="evenodd" clip-rule="evenodd" d="M25.1906 27.1175L14.5952 37.713L16.5217 39.6394L27.1171 29.044L37.7125 39.6394L39.639 37.7129L29.0436 27.1175L39.6392 16.5219L37.7127 14.5955L27.1171 25.1911L16.5215 14.5955L14.595 16.5219L25.1906 27.1175Z" fill="#0A47E5"/>
<path d="M14.5952 37.713L13.8881 37.0059L13.181 37.713L13.8881 38.4201L14.5952 37.713ZM25.1906 27.1175L25.8978 27.8246L26.6049 27.1175L25.8978 26.4104L25.1906 27.1175ZM16.5217 39.6394L15.8146 40.3465L16.5217 41.0536L17.2288 40.3465L16.5217 39.6394ZM27.1171 29.044L27.8242 28.3369L27.1171 27.6298L26.41 28.3369L27.1171 29.044ZM37.7125 39.6394L37.0054 40.3465L37.7125 41.0536L38.4196 40.3465L37.7125 39.6394ZM39.639 37.7129L40.3461 38.42L41.0532 37.7129L40.3461 37.0058L39.639 37.7129ZM29.0436 27.1175L28.3365 26.4104L27.6293 27.1175L28.3365 27.8246L29.0436 27.1175ZM39.6392 16.5219L40.3463 17.229L41.0534 16.5219L40.3463 15.8148L39.6392 16.5219ZM37.7127 14.5955L38.4198 13.8884L37.7127 13.1813L37.0056 13.8884L37.7127 14.5955ZM27.1171 25.1911L26.41 25.8982L27.1171 26.6053L27.8242 25.8982L27.1171 25.1911ZM16.5215 14.5955L17.2286 13.8884L16.5215 13.1813L15.8144 13.8884L16.5215 14.5955ZM14.595 16.5219L13.8879 15.8148L13.1808 16.5219L13.8879 17.229L14.595 16.5219ZM15.3023 38.4201L25.8978 27.8246L24.4835 26.4104L13.8881 37.0059L15.3023 38.4201ZM17.2288 38.9323L15.3023 37.0059L13.8881 38.4201L15.8146 40.3465L17.2288 38.9323ZM26.41 28.3369L15.8146 38.9323L17.2288 40.3465L27.8242 29.7511L26.41 28.3369ZM38.4196 38.9323L27.8242 28.3369L26.41 29.7511L37.0054 40.3465L38.4196 38.9323ZM38.9318 37.0058L37.0054 38.9323L38.4196 40.3465L40.3461 38.42L38.9318 37.0058ZM28.3365 27.8246L38.9318 38.42L40.3461 37.0058L29.7507 26.4104L28.3365 27.8246ZM38.932 15.8148L28.3365 26.4104L29.7507 27.8246L40.3463 17.229L38.932 15.8148ZM37.0056 15.3026L38.932 17.229L40.3463 15.8148L38.4198 13.8884L37.0056 15.3026ZM27.8242 25.8982L38.4198 15.3026L37.0056 13.8884L26.41 24.484L27.8242 25.8982ZM15.8144 15.3026L26.41 25.8982L27.8242 24.484L17.2286 13.8884L15.8144 15.3026ZM15.3021 17.229L17.2286 15.3026L15.8144 13.8884L13.8879 15.8148L15.3021 17.229ZM25.8978 26.4104L15.3021 15.8148L13.8879 17.229L24.4835 27.8246L25.8978 26.4104Z" fill="#0A47E5" mask="url(#path-2-inside-1_85_1366)"/>
</svg>
