<svg width="62" height="62" viewBox="0 0 62 62" fill="none" xmlns="http://www.w3.org/2000/svg">
<circle cx="31" cy="31" r="30" stroke="#0A47E5" stroke-width="2"/>
<path fill-rule="evenodd" clip-rule="evenodd" d="M48.4546 21C48.4546 30.3888 40.8434 38 31.4546 38C22.0657 38 14.4546 30.3888 14.4546 21C14.4546 11.6112 22.0657 4 31.4546 4C40.8434 4 48.4546 11.6112 48.4546 21ZM51.6487 24.4546C50.0822 34.1956 41.6373 41.6364 31.4545 41.6364C21.2718 41.6364 12.8269 34.1956 11.2604 24.4546C11.089 25.5202 11 26.6134 11 27.7273C11 39.0241 20.1578 48.1819 31.4545 48.1819C42.7513 48.1819 51.9091 39.0241 51.9091 27.7273C51.9091 26.6134 51.82 25.5202 51.6487 24.4546ZM31.4545 51.4545C41.6373 51.4545 50.0822 44.0137 51.6487 34.2727C51.82 35.3383 51.9091 36.4315 51.9091 37.5454C51.9091 48.8422 42.7513 58 31.4545 58C20.1578 58 11 48.8422 11 37.5454C11 36.4315 11.089 35.3383 11.2604 34.2727C12.8269 44.0137 21.2718 51.4545 31.4545 51.4545Z" fill="#0A47E5"/>
</svg>
