<svg width="308" height="48" viewBox="0 0 308 48" fill="none" xmlns="http://www.w3.org/2000/svg">
<g clip-path="url(#clip0_36_149)">
<path d="M34.1744 0.546674C22.5689 -1.7357 8.1786 2.96448 2.11743 17.5014C6.54791 13.7995 17.175 7.95058 28.61 11.7579C30.3511 7.59443 33.6275 1.71043 34.1744 0.546674Z" fill="#EF404A"/>
<path d="M20.04 1.24414C7.6668 4.46956 -1.65577 17.602 0.245874 31.251C1.5705 40.7567 11.8012 49.9013 25.2934 47.644C30.7173 41.9305 27.1649 34.1554 22.905 30.9601C18.6451 27.7648 16.3923 27.1428 12.3532 21.8607C8.54988 16.8947 10.1304 6.69675 20.04 1.24414Z" fill="#0EADF3"/>
<path d="M10.8528 12.4704C11.8564 8.38721 14.7715 4.1435 20.0399 1.24414C19.7138 1.32942 19.3826 1.41971 19.0615 1.52003C12.1725 3.677 5.55434 9.02426 2.01196 17.5217C3.91862 15.9266 7.07967 13.9151 10.8528 12.4704Z" fill="#033AC7"/>
<path d="M41.786 22.3472C39.2521 22.5428 30.7625 25.6779 27.3154 27.5389C29.4529 29.4551 32.2125 32.7006 32.1523 37.3857C32.0971 41.4539 29.0465 45.4417 25.3335 47.5987C34.4052 45.7929 39.6134 38.8304 41.1638 34.1051C42.5135 30.0069 42.7042 26.024 41.786 22.3472Z" fill="#EF404A"/>
<path d="M38.1685 39.563C35.3536 43.5458 30.6321 46.5656 25.2834 47.609C26.7034 45.6727 27.7972 44.0324 28.0431 41.0929C32.017 41.4441 36.4474 41.1983 38.1685 39.563Z" fill="#ED1C24"/>
<path d="M38.1682 39.563C37.0945 40.6365 33.6926 41.1431 31.2741 41.2635C30.5516 43.4505 27.6013 46.1292 25.3284 47.604C28.4593 47.1224 32.368 44.9052 33.2561 44.3133C35.2079 42.9941 36.8837 41.3789 38.1682 39.563Z" fill="#FD951A"/>
<path d="M28.0429 41.1279C21.1588 40.4959 2.87497 37.1852 0.782657 21.314C-2.18772 34.7975 3.83833 41.8051 11.6155 45.8683C17.9827 49.194 25.1026 47.644 25.3334 47.5988C27.215 45.5974 27.9977 43.3451 28.0429 41.1279Z" fill="#0A47E5"/>
</g>
<path d="M68.9468 14.2969C67.6447 14.2969 66.4468 14.5208 65.353 14.9688C64.2593 15.4062 63.3166 16.0417 62.5249 16.875C61.7332 17.6979 61.1134 18.6979 60.6655 19.875C60.228 21.0417 60.0093 22.349 60.0093 23.7969C60.0093 25.2552 60.2489 26.5729 60.728 27.75C61.2072 28.9167 61.8634 29.9115 62.6968 30.7344C63.5405 31.5573 64.5249 32.1927 65.6499 32.6406C66.7749 33.0781 67.9884 33.2969 69.2905 33.2969C69.7697 33.2969 70.2332 33.2552 70.6812 33.1719C71.1395 33.0781 71.5666 32.9635 71.9624 32.8281C72.3687 32.6927 72.7437 32.5417 73.0874 32.375C73.4416 32.2083 73.7541 32.0417 74.0249 31.875V24.6094H70.103V23.375H76.8843V32.5781C76.3009 32.8906 75.7124 33.1667 75.1187 33.4062C74.5353 33.6354 73.8999 33.8333 73.2124 34C72.5249 34.1562 71.7645 34.276 70.9312 34.3594C70.1082 34.4427 69.1707 34.4844 68.1187 34.4844C67.0041 34.4844 65.9468 34.3542 64.9468 34.0938C63.9468 33.8438 63.0145 33.4844 62.1499 33.0156C61.2957 32.5469 60.5249 31.9896 59.8374 31.3438C59.1499 30.6875 58.5614 29.9635 58.0718 29.1719C57.5822 28.3802 57.2072 27.5312 56.9468 26.625C56.6864 25.7083 56.5562 24.7656 56.5562 23.7969C56.5562 22.8281 56.6812 21.8854 56.9312 20.9688C57.1812 20.0417 57.5353 19.1719 57.9937 18.3594C58.4624 17.5365 59.0301 16.7865 59.6968 16.1094C60.3739 15.4323 61.1291 14.849 61.9624 14.3594C62.8062 13.8698 63.7228 13.4896 64.7124 13.2188C65.7124 12.9479 66.7697 12.8125 67.8843 12.8125C68.9259 12.8125 69.8947 12.9635 70.7905 13.2656C71.6968 13.5573 72.5197 13.9531 73.2593 14.4531C74.0093 14.9427 74.6812 15.5156 75.2749 16.1719C75.8687 16.8177 76.3791 17.4896 76.8062 18.1875L75.478 19.0781C75.0614 18.276 74.5822 17.5781 74.0405 16.9844C73.4989 16.3802 72.9312 15.8802 72.3374 15.4844C71.7541 15.0885 71.1707 14.7917 70.5874 14.5938C70.0041 14.3958 69.4572 14.2969 68.9468 14.2969ZM82.8218 13.2812H89.4155C91.2072 13.2812 92.8687 13.4844 94.3999 13.8906C95.9312 14.2865 97.2541 14.9062 98.3687 15.75C99.4832 16.5833 100.353 17.6406 100.978 18.9219C101.613 20.1927 101.931 21.7031 101.931 23.4531C101.931 24.9115 101.676 26.2812 101.166 27.5625C100.655 28.8438 99.8999 29.9635 98.8999 30.9219C97.9103 31.8698 96.6864 32.6198 95.228 33.1719C93.7801 33.724 92.1187 34 90.2437 34H82.8218V13.2812ZM85.6812 32.4844H89.6968C90.9155 32.4844 92.0562 32.2917 93.1187 31.9062C94.1812 31.5208 95.1082 30.9479 95.8999 30.1875C96.702 29.4271 97.3322 28.4948 97.7905 27.3906C98.2489 26.276 98.478 24.9896 98.478 23.5312C98.478 22.25 98.2593 21.0781 97.8218 20.0156C97.3947 18.9427 96.7905 18.0208 96.0093 17.25C95.2384 16.4792 94.3166 15.8802 93.2437 15.4531C92.1707 15.026 90.9937 14.8125 89.7124 14.8125H85.6812V32.4844ZM107.462 13.2812L114.791 24L122.072 13.2812H123.916L115.619 25.5V34H112.759V25.375L104.431 13.2812H107.462ZM156.884 13.2812V14.625H149.384V34H146.525V14.625H139.025V13.2812H156.884ZM165.769 34.3438C164.727 34.3438 163.748 34.1406 162.831 33.7344C161.925 33.3281 161.128 32.776 160.441 32.0781C159.763 31.3802 159.227 30.5625 158.831 29.625C158.435 28.6771 158.237 27.6719 158.237 26.6094C158.237 25.3281 158.414 24.1458 158.769 23.0625C159.133 21.9688 159.644 21.026 160.3 20.2344C160.967 19.4427 161.763 18.8229 162.691 18.375C163.618 17.9271 164.649 17.7031 165.784 17.7031C166.784 17.7031 167.701 17.8906 168.534 18.2656C169.368 18.6302 170.086 19.125 170.691 19.75C171.295 20.3646 171.763 21.0781 172.097 21.8906C172.43 22.7031 172.597 23.5521 172.597 24.4375H160.675C160.675 25.5104 160.821 26.5052 161.112 27.4219C161.404 28.3385 161.81 29.1302 162.331 29.7969C162.862 30.4635 163.487 30.9844 164.206 31.3594C164.935 31.7344 165.737 31.9219 166.612 31.9219C167.342 31.9219 168.039 31.8177 168.706 31.6094C169.383 31.3906 169.987 31.1094 170.519 30.7656C171.06 30.4115 171.513 30.0104 171.878 29.5625C172.253 29.1042 172.513 28.6354 172.659 28.1562L173.05 28.3438C172.81 29.1771 172.441 29.9583 171.941 30.6875C171.451 31.4062 170.878 32.0417 170.222 32.5938C169.566 33.1354 168.852 33.5625 168.081 33.875C167.321 34.1875 166.55 34.3438 165.769 34.3438ZM168.925 23.1562H169.237C169.237 22.5521 169.123 21.9896 168.894 21.4688C168.664 20.9479 168.347 20.5 167.941 20.125C167.545 19.7396 167.076 19.4375 166.534 19.2188C165.993 19 165.414 18.8906 164.8 18.8906C164.279 18.8906 163.779 19 163.3 19.2188C162.831 19.4271 162.409 19.724 162.034 20.1094C161.659 20.4844 161.352 20.9323 161.112 21.4531C160.873 21.974 160.732 22.5365 160.691 23.1406L168.925 23.1562ZM186.966 22.2188C186.851 21.8333 186.695 21.4427 186.497 21.0469C186.299 20.651 186.038 20.2969 185.716 19.9844C185.403 19.6615 185.018 19.401 184.559 19.2031C184.111 18.9948 183.58 18.8906 182.966 18.8906C182.195 18.8906 181.502 19.0365 180.887 19.3281C180.283 19.6198 179.768 20.0156 179.341 20.5156C178.924 21.0156 178.601 21.599 178.372 22.2656C178.153 22.9323 178.044 23.6406 178.044 24.3906C178.044 25.4115 178.184 26.3802 178.466 27.2969C178.747 28.2031 179.143 29 179.653 29.6875C180.163 30.375 180.778 30.9219 181.497 31.3281C182.226 31.724 183.033 31.9219 183.919 31.9219C184.721 31.9219 185.408 31.8125 185.981 31.5938C186.564 31.3646 187.064 31.0573 187.481 30.6719C187.908 30.2865 188.268 29.8385 188.559 29.3281C188.851 28.8177 189.106 28.2812 189.325 27.7188L189.762 27.9062C189.481 28.9271 189.117 29.8385 188.669 30.6406C188.231 31.4323 187.716 32.1042 187.122 32.6562C186.528 33.1979 185.861 33.6146 185.122 33.9062C184.382 34.1979 183.58 34.3438 182.716 34.3438C181.716 34.3438 180.773 34.1406 179.887 33.7344C179.012 33.3177 178.247 32.75 177.591 32.0312C176.934 31.3125 176.419 30.474 176.044 29.5156C175.669 28.5573 175.481 27.5312 175.481 26.4375C175.481 25.2292 175.689 24.0938 176.106 23.0312C176.523 21.9688 177.091 21.0469 177.809 20.2656C178.538 19.474 179.387 18.849 180.356 18.3906C181.325 17.9323 182.356 17.7031 183.45 17.7031C184.044 17.7031 184.617 17.776 185.169 17.9219C185.721 18.0677 186.226 18.2812 186.684 18.5625C187.153 18.8333 187.564 19.1667 187.919 19.5625C188.283 19.9479 188.575 20.3854 188.794 20.875L186.966 22.2188ZM195.35 17.7031H195.834V20.8125C197.074 19.7292 198.214 18.9427 199.256 18.4531C200.308 17.9531 201.334 17.7031 202.334 17.7031C202.845 17.7031 203.324 17.8281 203.772 18.0781C204.23 18.3281 204.626 18.6719 204.959 19.1094C205.293 19.5469 205.553 20.0625 205.741 20.6562C205.938 21.2396 206.037 21.8646 206.037 22.5312V34H203.491V23.0781C203.491 22.5469 203.418 22.0833 203.272 21.6875C203.136 21.2812 202.938 20.9427 202.678 20.6719C202.428 20.401 202.126 20.1979 201.772 20.0625C201.428 19.9167 201.048 19.8438 200.631 19.8438C200.267 19.8438 199.881 19.9167 199.475 20.0625C199.069 20.1979 198.657 20.3854 198.241 20.625C197.834 20.8542 197.423 21.125 197.006 21.4375C196.6 21.75 196.209 22.0781 195.834 22.4219V34H193.272V18.5156L195.35 17.7031ZM217.766 34.3438C216.588 34.3438 215.5 34.1302 214.5 33.7031C213.51 33.276 212.651 32.6979 211.922 31.9688C211.203 31.2292 210.641 30.3698 210.234 29.3906C209.828 28.401 209.625 27.3438 209.625 26.2188C209.625 25.0417 209.828 23.9375 210.234 22.9062C210.641 21.8646 211.203 20.9583 211.922 20.1875C212.651 19.4167 213.51 18.8125 214.5 18.375C215.5 17.9271 216.588 17.7031 217.766 17.7031C218.932 17.7031 220.01 17.9062 221 18.3125C221.989 18.7188 222.844 19.276 223.562 19.9844C224.292 20.6927 224.859 21.526 225.266 22.4844C225.672 23.4323 225.875 24.4531 225.875 25.5469C225.875 26.7552 225.672 27.8958 225.266 28.9688C224.859 30.0312 224.292 30.9635 223.562 31.7656C222.844 32.5573 221.989 33.1875 221 33.6562C220.01 34.1146 218.932 34.3438 217.766 34.3438ZM218.375 33.1719C219.042 33.1719 219.651 33.0104 220.203 32.6875C220.766 32.3646 221.25 31.9323 221.656 31.3906C222.062 30.8385 222.375 30.2031 222.594 29.4844C222.823 28.7656 222.937 28.0052 222.937 27.2031C222.937 26.0469 222.833 24.9635 222.625 23.9531C222.417 22.9427 222.073 22.0625 221.594 21.3125C221.125 20.5625 220.51 19.974 219.75 19.5469C219 19.1094 218.078 18.8906 216.984 18.8906C216.411 18.8906 215.854 19.0469 215.312 19.3594C214.781 19.6615 214.307 20.0781 213.891 20.6094C213.484 21.1406 213.156 21.7656 212.906 22.4844C212.667 23.1927 212.547 23.9479 212.547 24.75C212.547 25.9167 212.677 27.0104 212.937 28.0312C213.198 29.0521 213.573 29.9427 214.062 30.7031C214.562 31.4635 215.172 32.0677 215.891 32.5156C216.62 32.9531 217.448 33.1719 218.375 33.1719ZM231.978 34H229.416V10.6719L231.478 9.84375H231.978V34ZM243.691 34.3438C242.513 34.3438 241.425 34.1302 240.425 33.7031C239.435 33.276 238.576 32.6979 237.847 31.9688C237.128 31.2292 236.566 30.3698 236.159 29.3906C235.753 28.401 235.55 27.3438 235.55 26.2188C235.55 25.0417 235.753 23.9375 236.159 22.9062C236.566 21.8646 237.128 20.9583 237.847 20.1875C238.576 19.4167 239.435 18.8125 240.425 18.375C241.425 17.9271 242.513 17.7031 243.691 17.7031C244.857 17.7031 245.935 17.9062 246.925 18.3125C247.914 18.7188 248.769 19.276 249.487 19.9844C250.217 20.6927 250.784 21.526 251.191 22.4844C251.597 23.4323 251.8 24.4531 251.8 25.5469C251.8 26.7552 251.597 27.8958 251.191 28.9688C250.784 30.0312 250.217 30.9635 249.487 31.7656C248.769 32.5573 247.914 33.1875 246.925 33.6562C245.935 34.1146 244.857 34.3438 243.691 34.3438ZM244.3 33.1719C244.967 33.1719 245.576 33.0104 246.128 32.6875C246.691 32.3646 247.175 31.9323 247.581 31.3906C247.987 30.8385 248.3 30.2031 248.519 29.4844C248.748 28.7656 248.862 28.0052 248.862 27.2031C248.862 26.0469 248.758 24.9635 248.55 23.9531C248.342 22.9427 247.998 22.0625 247.519 21.3125C247.05 20.5625 246.435 19.974 245.675 19.5469C244.925 19.1094 244.003 18.8906 242.909 18.8906C242.336 18.8906 241.779 19.0469 241.237 19.3594C240.706 19.6615 240.232 20.0781 239.816 20.6094C239.409 21.1406 239.081 21.7656 238.831 22.4844C238.592 23.1927 238.472 23.9479 238.472 24.75C238.472 25.9167 238.602 27.0104 238.862 28.0312C239.123 29.0521 239.498 29.9427 239.987 30.7031C240.487 31.4635 241.097 32.0677 241.816 32.5156C242.545 32.9531 243.373 33.1719 244.3 33.1719ZM269.778 20.1875H266.809C267.101 20.5833 267.335 21.0573 267.512 21.6094C267.689 22.151 267.778 22.7031 267.778 23.2656C267.778 24.099 267.601 24.8542 267.247 25.5312C266.903 26.2083 266.419 26.7917 265.794 27.2812C265.169 27.7708 264.419 28.151 263.544 28.4219C262.679 28.6823 261.726 28.8125 260.684 28.8125C260.309 28.8125 259.976 28.8021 259.684 28.7812C259.393 28.7604 259.091 28.6979 258.778 28.5938C258.184 28.875 257.731 29.1615 257.419 29.4531C257.106 29.7344 256.95 30.026 256.95 30.3281C256.95 30.6406 257.148 30.8958 257.544 31.0938C257.95 31.2812 258.523 31.3906 259.262 31.4219C260.252 31.4635 261.236 31.5104 262.216 31.5625C263.195 31.6042 264.179 31.6458 265.169 31.6875C266.054 31.7292 266.794 31.8385 267.387 32.0156C267.981 32.1927 268.455 32.4375 268.809 32.75C269.163 33.0521 269.413 33.4167 269.559 33.8438C269.705 34.2604 269.778 34.7292 269.778 35.25C269.778 36.1771 269.57 37.0156 269.153 37.7656C268.736 38.526 268.132 39.1719 267.341 39.7031C266.559 40.2344 265.601 40.6458 264.466 40.9375C263.33 41.2292 262.049 41.375 260.622 41.375C258.07 41.375 256.169 41.0729 254.919 40.4688C253.669 39.875 253.044 39.0833 253.044 38.0938C253.044 37.6354 253.143 37.1927 253.341 36.7656C253.538 36.349 253.799 35.9531 254.122 35.5781C254.445 35.2031 254.799 34.849 255.184 34.5156C255.58 34.1927 255.976 33.8958 256.372 33.625C255.841 33.4479 255.398 33.1979 255.044 32.875C254.689 32.5521 254.512 32.1562 254.512 31.6875C254.512 31.0104 254.768 30.375 255.278 29.7812C255.788 29.1771 256.549 28.6406 257.559 28.1719C256.549 27.7344 255.757 27.1094 255.184 26.2969C254.611 25.474 254.325 24.5208 254.325 23.4375C254.325 22.6562 254.497 21.9167 254.841 21.2188C255.184 20.5208 255.658 19.9115 256.262 19.3906C256.867 18.8698 257.575 18.4583 258.387 18.1562C259.21 17.8542 260.091 17.7031 261.028 17.7031C261.476 17.7031 261.919 17.7344 262.356 17.7969C262.794 17.8594 263.2 17.9427 263.575 18.0469C263.96 18.151 264.304 18.2708 264.606 18.4062C264.908 18.5417 265.148 18.6875 265.325 18.8438H269.778V20.1875ZM257.7 34C257.46 34.1771 257.21 34.3698 256.95 34.5781C256.7 34.7969 256.466 35.0208 256.247 35.25C256.028 35.4792 255.846 35.7031 255.7 35.9219C255.564 36.151 255.497 36.3698 255.497 36.5781C255.497 36.9323 255.627 37.2708 255.887 37.5938C256.158 37.9167 256.554 38.2031 257.075 38.4531C257.606 38.7031 258.268 38.901 259.059 39.0469C259.851 39.1927 260.773 39.2656 261.825 39.2656C262.939 39.2656 263.913 39.1771 264.747 39C265.591 38.8333 266.288 38.6094 266.841 38.3281C267.403 38.0573 267.825 37.75 268.106 37.4062C268.387 37.0625 268.528 36.7188 268.528 36.375C268.528 35.6562 268.216 35.1354 267.591 34.8125C266.966 34.5 265.986 34.3438 264.653 34.3438C263.893 34.3438 263.143 34.3333 262.403 34.3125C261.674 34.2917 260.997 34.2604 260.372 34.2188C259.747 34.1875 259.2 34.151 258.731 34.1094C258.262 34.0677 257.919 34.0312 257.7 34ZM261.216 27.9844C261.705 27.9844 262.174 27.8854 262.622 27.6875C263.08 27.4792 263.481 27.1979 263.825 26.8438C264.169 26.4896 264.445 26.0781 264.653 25.6094C264.861 25.1302 264.966 24.6146 264.966 24.0625C264.966 23.2812 264.851 22.5573 264.622 21.8906C264.393 21.2135 264.08 20.6302 263.684 20.1406C263.288 19.6406 262.83 19.25 262.309 18.9688C261.788 18.6875 261.231 18.5469 260.637 18.5469C260.044 18.5469 259.533 18.6562 259.106 18.875C258.679 19.0938 258.325 19.401 258.044 19.7969C257.773 20.1823 257.57 20.6406 257.434 21.1719C257.309 21.6927 257.247 22.2552 257.247 22.8594C257.247 23.5781 257.341 24.25 257.528 24.875C257.726 25.5 257.997 26.0469 258.341 26.5156C258.695 26.974 259.111 27.3333 259.591 27.5938C260.08 27.8542 260.622 27.9844 261.216 27.9844ZM272.022 18.5312L274.053 17.7031H274.553V34H272.022V18.5312ZM271.772 11.875C271.772 11.625 271.808 11.3906 271.881 11.1719C271.964 10.9531 272.074 10.7604 272.209 10.5938C272.345 10.4271 272.501 10.2969 272.678 10.2031C272.866 10.1094 273.063 10.0625 273.272 10.0625C273.48 10.0625 273.673 10.1094 273.85 10.2031C274.037 10.2969 274.199 10.4271 274.334 10.5938C274.47 10.7604 274.574 10.9531 274.647 11.1719C274.73 11.3906 274.772 11.625 274.772 11.875C274.772 12.125 274.73 12.3594 274.647 12.5781C274.574 12.7969 274.47 12.9896 274.334 13.1562C274.199 13.3229 274.037 13.4531 273.85 13.5469C273.673 13.6406 273.48 13.6875 273.272 13.6875C273.063 13.6875 272.866 13.6406 272.678 13.5469C272.501 13.4531 272.345 13.3229 272.209 13.1562C272.074 12.9896 271.964 12.7969 271.881 12.5781C271.808 12.3594 271.772 12.125 271.772 11.875ZM290.453 31.8125C290.453 32.2917 290.599 32.724 290.891 33.1094C291.182 33.4948 291.547 33.7917 291.984 34H289.203C288.838 33.8229 288.526 33.5469 288.266 33.1719C288.016 32.7865 287.891 32.3333 287.891 31.8125C287.578 32.0312 287.229 32.2865 286.844 32.5781C286.469 32.8698 286.047 33.1458 285.578 33.4062C285.109 33.6667 284.588 33.8854 284.016 34.0625C283.443 34.25 282.807 34.3438 282.109 34.3438C281.526 34.3438 281 34.2396 280.531 34.0312C280.073 33.8333 279.682 33.5573 279.359 33.2031C279.036 32.849 278.786 32.4271 278.609 31.9375C278.432 31.4479 278.344 30.9219 278.344 30.3594C278.344 29.6615 278.474 29.0312 278.734 28.4688C279.005 27.9062 279.37 27.401 279.828 26.9531C280.297 26.4948 280.838 26.0938 281.453 25.75C282.078 25.3958 282.745 25.0833 283.453 24.8125C284.161 24.5312 284.896 24.2865 285.656 24.0781C286.417 23.8698 287.161 23.6771 287.891 23.5V22.6719C287.891 21.9427 287.833 21.3281 287.719 20.8281C287.604 20.3281 287.422 19.9271 287.172 19.625C286.932 19.3125 286.625 19.0938 286.25 18.9688C285.875 18.8333 285.422 18.7656 284.891 18.7656C284.401 18.7656 283.948 18.8542 283.531 19.0312C283.114 19.2083 282.75 19.4479 282.437 19.75C282.125 20.0417 281.87 20.3906 281.672 20.7969C281.474 21.1927 281.344 21.6146 281.281 22.0625H279C279.083 21.375 279.312 20.7604 279.687 20.2188C280.062 19.6771 280.531 19.224 281.094 18.8594C281.667 18.4844 282.307 18.1979 283.016 18C283.734 17.8021 284.479 17.7031 285.25 17.7031C286.239 17.7031 287.068 17.8073 287.734 18.0156C288.401 18.2135 288.932 18.4948 289.328 18.8594C289.734 19.224 290.021 19.6719 290.187 20.2031C290.364 20.724 290.453 21.3021 290.453 21.9375V31.8125ZM287.891 24.6875C287.088 24.9062 286.271 25.1823 285.437 25.5156C284.604 25.8385 283.849 26.2031 283.172 26.6094C282.505 27.0156 281.958 27.4635 281.531 27.9531C281.104 28.4427 280.891 28.9635 280.891 29.5156C280.891 29.9115 280.969 30.2865 281.125 30.6406C281.292 30.9844 281.51 31.2917 281.781 31.5625C282.052 31.8229 282.359 32.0312 282.703 32.1875C283.057 32.3333 283.422 32.4062 283.797 32.4062C284.203 32.4062 284.578 32.349 284.922 32.2344C285.276 32.1198 285.614 31.974 285.937 31.7969C286.26 31.6094 286.578 31.401 286.891 31.1719C287.213 30.9323 287.547 30.6875 287.891 30.4375V24.6875ZM299.15 33.2344C299.629 33.2344 300.067 33.1719 300.462 33.0469C300.869 32.9115 301.218 32.7344 301.509 32.5156C301.801 32.2969 302.025 32.0469 302.181 31.7656C302.348 31.474 302.431 31.1771 302.431 30.875C302.431 30.3646 302.306 29.9219 302.056 29.5469C301.817 29.1615 301.494 28.8229 301.087 28.5312C300.692 28.2292 300.238 27.9583 299.728 27.7188C299.218 27.4688 298.697 27.2188 298.166 26.9688C297.634 26.7188 297.113 26.4531 296.603 26.1719C296.093 25.8802 295.634 25.5521 295.228 25.1875C294.832 24.8125 294.509 24.3802 294.259 23.8906C294.02 23.401 293.9 22.8229 293.9 22.1562C293.9 21.5208 294.025 20.9323 294.275 20.3906C294.535 19.8385 294.895 19.3646 295.353 18.9688C295.811 18.5729 296.353 18.2656 296.978 18.0469C297.613 17.8177 298.301 17.7031 299.041 17.7031C299.53 17.7031 299.988 17.7396 300.416 17.8125C300.853 17.8854 301.28 18.0312 301.697 18.25C302.113 18.4583 302.535 18.7604 302.962 19.1562C303.4 19.5417 303.863 20.0521 304.353 20.6875L303.525 21.4375C302.973 20.5312 302.311 19.8594 301.541 19.4219C300.78 18.9844 299.936 18.7656 299.009 18.7656C298.509 18.7656 298.051 18.8229 297.634 18.9375C297.218 19.0417 296.858 19.1927 296.556 19.3906C296.264 19.5781 296.035 19.8021 295.869 20.0625C295.712 20.3229 295.634 20.599 295.634 20.8906C295.634 21.3906 295.764 21.8281 296.025 22.2031C296.296 22.5677 296.65 22.8958 297.087 23.1875C297.525 23.4792 298.02 23.75 298.572 24C299.134 24.25 299.702 24.5 300.275 24.75C300.858 25 301.426 25.2708 301.978 25.5625C302.541 25.8438 303.041 26.1719 303.478 26.5469C303.916 26.9115 304.264 27.3385 304.525 27.8281C304.796 28.3073 304.931 28.8698 304.931 29.5156C304.931 30.1927 304.811 30.8281 304.572 31.4219C304.343 32.0052 303.988 32.5156 303.509 32.9531C303.03 33.3802 302.426 33.7188 301.697 33.9688C300.978 34.2188 300.129 34.3438 299.15 34.3438C298.712 34.3438 298.259 34.3073 297.791 34.2344C297.332 34.1615 296.863 34.0208 296.384 33.8125C295.916 33.5938 295.436 33.2917 294.947 32.9062C294.457 32.5104 293.968 32 293.478 31.375L294.478 30.4844C294.822 30.9844 295.166 31.4115 295.509 31.7656C295.853 32.1094 296.207 32.3906 296.572 32.6094C296.947 32.8281 297.343 32.9896 297.759 33.0938C298.186 33.1875 298.65 33.2344 299.15 33.2344Z" fill="#0A47E5"/>
<defs>
<clipPath id="clip0_36_149">
<rect width="42.3529" height="48" rx="2" fill="white"/>
</clipPath>
</defs>
</svg>
