<svg width="62" height="62" viewBox="0 0 62 62" fill="none" xmlns="http://www.w3.org/2000/svg">
<circle cx="31" cy="31" r="30" stroke="#0A47E5" stroke-width="2"/>
<path d="M54.5091 42.1051C56.3839 38.1363 57.2233 33.7574 56.9493 29.3766C56.6752 24.9958 55.2965 20.7557 52.9417 17.0515C50.5869 13.3473 47.3326 10.2995 43.4822 8.19222C39.6318 6.08496 35.3105 4.98681 30.9212 5.00012C26.5318 5.01343 22.2173 6.13777 18.3797 8.26834C14.5421 10.3989 11.3064 13.4664 8.9741 17.1848C6.6418 20.9033 5.28886 25.1516 5.04137 29.534C4.79388 33.9164 5.6599 38.2901 7.55871 42.2475L15.542 38.417C14.2898 35.8073 13.7188 32.9232 13.882 30.0333C14.0452 27.1434 14.9373 24.3419 16.4753 21.8898C18.0133 19.4377 20.1471 17.4149 22.6777 16.0099C25.2084 14.605 28.0535 13.8635 30.948 13.8548C33.8425 13.846 36.6921 14.5701 39.2312 15.9597C41.7703 17.3493 43.9163 19.3592 45.4692 21.8019C47.022 24.2446 47.9311 27.0406 48.1119 29.9295C48.2926 32.8183 47.739 35.7059 46.5027 38.3231L54.5091 42.1051Z" fill="#0A47E5"/>
<path d="M53.6857 39.5288C55.1551 35.6205 55.5899 31.3989 54.9478 27.2731C54.3058 23.1474 52.6088 19.2575 50.0213 15.9805L45.7307 19.3683C47.7346 21.9061 49.0488 24.9186 49.546 28.1137C50.0432 31.3088 49.7065 34.5782 48.5686 37.6049L53.6857 39.5288Z" fill="white"/>
<path d="M34.7441 32.4109C34.1737 33.9238 32.7126 35 31 35C28.7908 35 27 33.2092 27 31C27 28.7908 28.7908 27 31 27C32.5966 27 33.9747 27.9355 34.6161 29.2881L55 30.3333L34.7441 32.4109Z" fill="#0A47E5"/>
</svg>
