<svg width="22" height="25" viewBox="0 0 22 25" fill="none" xmlns="http://www.w3.org/2000/svg">
<path fill-rule="evenodd" clip-rule="evenodd" d="M9.78029 1.23865C12.253 0.425875 14.8774 0.304107 17.2659 0.773829C17.1901 0.935041 17.0096 1.27741 16.7697 1.73245C16.1436 2.91987 15.113 4.87456 14.4836 6.37951C11.2273 5.29531 8.10202 5.7772 5.6055 6.73492C5.16453 8.53235 5.46479 10.2683 6.35514 11.4309C7.84834 13.3836 8.85331 14.0626 10.1366 14.9296C10.589 15.2352 11.076 15.5642 11.6312 15.9807C13.7551 17.5738 15.5274 21.4441 12.8481 24.2986C12.8514 24.2967 12.8547 24.2948 12.858 24.2928C13.5072 23.8697 14.2642 23.2524 14.8605 22.5977C15.6918 21.6002 16.2385 20.404 16.255 19.1936C16.2851 16.851 14.9052 15.2282 13.8365 14.2701C15.56 13.3396 19.8049 11.772 21.0719 11.6742C21.531 13.5126 21.4356 15.5041 20.7608 17.5532C20.4717 18.4344 19.9282 19.4711 19.125 20.4717C18.5025 21.3026 17.7143 22.0439 16.8069 22.6573C16.6991 22.7291 16.5024 22.8488 16.2439 22.9923C15.5981 23.3799 14.8856 23.7138 14.1057 23.9697C13.6812 24.1193 13.2499 24.2399 12.8445 24.3024L12.8253 24.3227C12.291 24.4121 11.7669 24.4657 11.2545 24.4863C9.91503 24.5492 7.92509 24.425 6.05511 23.4703C4.8987 22.933 3.87963 22.2107 3.03043 21.3672C1.91269 20.2997 1.03558 18.9811 0.564997 17.3305C0.44613 16.9326 0.357689 16.53 0.301406 16.1261C-0.0313849 13.7375 0.32331 11.3805 1.19027 9.25653C1.18835 9.25814 1.18643 9.25974 1.18452 9.26134C1.262 9.07548 1.34242 8.89264 1.42567 8.71281C1.71917 8.07211 2.05974 7.4551 2.44227 6.86766C3.4436 5.32238 4.67477 4.06675 6.0256 3.10235C7.11123 2.32277 8.30625 1.70905 9.57363 1.30375C9.61887 1.28902 9.66413 1.27457 9.70942 1.26039C9.73295 1.25304 9.75658 1.2458 9.78029 1.23865ZM12.8474 24.2997C12.8472 24.2998 12.8476 24.2997 12.8474 24.2997V24.2997Z" fill="white"/>
</svg>
