<svg width="85" height="96" viewBox="0 0 85 96" fill="none" xmlns="http://www.w3.org/2000/svg">
<g clip-path="url(#clip0_78_806)">
<path d="M68.3483 1.09353C45.1372 -3.47121 16.3567 5.92915 4.23438 35.003C13.0953 27.5991 34.3496 15.9013 57.2195 23.5159C60.7016 15.189 67.2545 3.42105 68.3483 1.09353Z" fill="#EF404A"/>
<path d="M40.08 2.48804C15.3336 8.93887 -3.31154 35.2037 0.491749 62.5018C3.141 81.5132 23.6025 99.8023 50.5867 95.2877C61.4346 83.8608 54.3298 68.3106 45.8101 61.92C37.2903 55.5293 32.7845 54.2853 24.7063 43.7212C17.0998 33.7891 20.2608 13.3933 40.08 2.48804Z" fill="#0EADF3"/>
<path d="M21.7062 24.9405C23.7132 16.7742 29.5436 8.28676 40.0804 2.48804C39.4281 2.65859 38.7658 2.83917 38.1235 3.03982C24.3454 7.35375 11.1092 18.0483 4.02441 35.0432C7.83773 31.8529 14.1598 27.8299 21.7062 24.9405Z" fill="#033AC7"/>
<path d="M83.5719 44.6943C78.5042 45.0856 61.5249 51.3558 54.6308 55.0779C58.9058 58.9102 64.425 65.4012 64.3046 74.7715C64.1942 82.9077 58.0929 90.8835 50.667 95.1974C68.8104 91.5858 79.2268 77.6608 82.3276 68.2103C85.027 60.0138 85.4083 52.0481 83.5719 44.6943Z" fill="#EF404A"/>
<path d="M76.3364 79.1255C70.7068 87.0912 61.2638 93.1307 50.5664 95.2175C53.4063 91.345 55.594 88.0644 56.0857 82.1854C64.0334 82.8877 72.8944 82.3961 76.3364 79.1255Z" fill="#ED1C24"/>
<path d="M76.3369 79.1255C74.1894 81.2725 67.3857 82.2857 62.5488 82.5265C61.1037 86.9006 55.2031 92.2579 50.6572 95.2074C56.9191 94.2443 64.7364 89.81 66.5126 88.6262C70.4162 85.9877 73.768 82.7572 76.3369 79.1255Z" fill="#FD951A"/>
<path d="M56.0858 82.2556C42.3177 80.9915 5.74993 74.3702 1.56531 42.6277C-4.37544 69.5947 7.67666 83.61 23.231 91.7362C35.9655 98.3877 50.2052 95.2877 50.6668 95.1974C54.43 91.1945 55.9954 86.6899 56.0858 82.2556Z" fill="#0A47E5"/>
</g>
<defs>
<clipPath id="clip0_78_806">
<rect width="84.7059" height="96" fill="white"/>
</clipPath>
</defs>
</svg>
