<svg width="25" height="25" viewBox="0 0 25 25" fill="none" xmlns="http://www.w3.org/2000/svg">
<path fill-rule="evenodd" clip-rule="evenodd" d="M10.2808 0.5H13.8364V2.54796C13.8364 3.45736 15.0404 3.77995 15.4951 2.9924L16.519 1.21886L19.5982 2.99664L18.5743 4.77007C18.1196 5.55773 19.0009 6.43902 19.7885 5.98438L21.5621 4.96039L23.3398 8.03961L21.5663 9.06359C20.7788 9.51823 21.1014 10.7222 22.0108 10.7222H24.0586V14.2778H22.0108C21.1014 14.2778 20.7788 15.4818 21.5663 15.9364L23.3398 16.9604L21.5621 20.0396L19.7884 19.0156C19.0009 18.5609 18.1195 19.4423 18.5742 20.2298L19.5982 22.0035L16.519 23.7812L15.4951 22.0077C15.0404 21.2202 13.8364 21.5428 13.8364 22.4521V24.5H10.2808V22.4521C10.2808 21.5428 9.07684 21.2202 8.62212 22.0077L7.59819 23.7812L4.51899 22.0035L5.54294 20.2299C5.99765 19.4424 5.11628 18.561 4.32869 19.0157L2.55523 20.0396L0.777456 16.9604L2.55095 15.9364C3.33853 15.4818 3.01593 14.2778 2.10651 14.2778H0.0585938V10.7222H2.1065C3.01593 10.7222 3.33853 9.51823 2.55095 9.06359L0.777452 8.03961L2.55523 4.96039L4.32861 5.98427C5.11619 6.43891 5.99756 5.55762 5.54284 4.76997L4.51899 2.99664L7.59819 1.21886L8.62212 2.9924C9.07684 3.77995 10.2808 3.45736 10.2808 2.54796V0.5ZM12.0586 20.0556C16.2314 20.0556 19.6141 16.6729 19.6141 12.5C19.6141 8.32715 16.2314 4.94444 12.0586 4.94444C7.88578 4.94444 4.50304 8.32715 4.50304 12.5C4.50304 16.6729 7.88578 20.0556 12.0586 20.0556Z" fill="white"/>
</svg>
