<svg width="163" height="65" viewBox="0 0 163 65" fill="none" xmlns="http://www.w3.org/2000/svg">
<g clip-path="url(#clip0_9_21)">
<path d="M45.6701 0.730684C30.1606 -2.31945 10.9297 3.96181 2.82959 23.3888C8.75042 18.4416 22.9524 10.6252 38.2339 15.7132C40.5607 10.1492 44.9393 2.28592 45.6701 0.730684Z" fill="#EF404A"/>
<path d="M26.7813 1.66251C10.2459 5.97291 -2.21266 23.5229 0.328668 41.7634C2.09888 54.4667 15.7711 66.6873 33.8018 63.6707C41.0503 56.0353 36.3029 45.6447 30.6101 41.3746C24.9172 37.1044 21.9065 36.2731 16.5087 29.2142C11.426 22.5777 13.5382 8.9493 26.7813 1.66251Z" fill="#0EADF3"/>
<path d="M14.5038 16.6651C15.8449 11.2084 19.7407 5.53718 26.7813 1.66251C26.3455 1.77647 25.9029 1.89713 25.4738 2.0312C16.2673 4.91374 7.42295 12.0598 2.68896 23.4156C5.237 21.2839 9.46138 18.5958 14.5038 16.6651Z" fill="#033AC7"/>
<path d="M55.8423 29.8645C52.4561 30.1259 41.1107 34.3157 36.5041 36.8027C39.3606 39.3635 43.0485 43.7007 42.9681 49.9618C42.8943 55.3984 38.8174 60.7278 33.8555 63.6103C45.9788 61.197 52.9389 51.8925 55.0109 45.5777C56.8146 40.1008 57.0694 34.7782 55.8423 29.8645Z" fill="#EF404A"/>
<path d="M51.0077 52.8712C47.246 58.1938 40.9362 62.2294 33.7883 63.6237C35.6859 61.0361 37.1477 58.8441 37.4763 54.9158C42.7869 55.385 48.7078 55.0566 51.0077 52.8712Z" fill="#ED1C24"/>
<path d="M51.0077 52.8712C49.5727 54.3058 45.0265 54.9828 41.7945 55.1437C40.8289 58.0665 36.8862 61.6462 33.8486 63.617C38.0328 62.9735 43.2563 60.0105 44.4431 59.2195C47.0515 57.4564 49.2911 55.2979 51.0077 52.8712Z" fill="#FD951A"/>
<path d="M37.4762 54.9627C28.2765 54.118 3.84212 49.6937 1.04598 28.4835C-2.92359 46.5028 5.12955 55.8677 15.5229 61.2976C24.032 65.7421 33.5469 63.6706 33.8553 63.6103C36.3698 60.9356 37.4159 57.9257 37.4762 54.9627Z" fill="#0A47E5"/>
</g>
<path d="M84.9742 18.844C83.1325 18.844 81.4381 19.1608 79.891 19.7945C78.3439 20.4134 77.0105 21.3123 75.8908 22.4912C74.771 23.6553 73.8943 25.07 73.2608 26.7352C72.6419 28.3856 72.3325 30.235 72.3325 32.2833C72.3325 34.3463 72.6714 36.2104 73.3492 37.8756C74.0269 39.526 74.9552 40.9333 76.1339 42.0975C77.3273 43.2616 78.7197 44.1605 80.3109 44.7942C81.9022 45.4131 83.6187 45.7225 85.4604 45.7225C86.1382 45.7225 86.7938 45.6636 87.4274 45.5457C88.0757 45.4131 88.6798 45.251 89.2396 45.0594C89.8143 44.8679 90.3447 44.6542 90.8309 44.4184C91.3319 44.1826 91.7739 43.9468 92.1569 43.7111V33.4327H86.6096V31.6865H96.2014V44.7058C95.3763 45.1478 94.5438 45.5383 93.704 45.8773C92.8789 46.2015 91.9801 46.4814 91.0077 46.7172C90.0353 46.9383 88.9597 47.1077 87.781 47.2256C86.617 47.3435 85.291 47.4024 83.8028 47.4024C82.2263 47.4024 80.7308 47.2182 79.3164 46.8498C77.9019 46.4962 76.5832 45.9878 75.3603 45.3247C74.1522 44.6615 73.0618 43.8732 72.0894 42.9595C71.117 42.0312 70.2845 41.007 69.592 39.8871C68.8995 38.7671 68.3691 37.5661 68.0008 36.2841C67.6324 34.9873 67.4482 33.6537 67.4482 32.2833C67.4482 30.9128 67.625 29.5792 67.9787 28.2825C68.3323 26.9709 68.8332 25.7405 69.4815 24.5911C70.1445 23.4269 70.9475 22.3659 71.8905 21.4081C72.8482 20.4503 73.9164 19.625 75.0951 18.9324C76.2886 18.2398 77.5851 17.702 78.9849 17.3188C80.3993 16.9357 81.8948 16.7441 83.4713 16.7441C84.9447 16.7441 86.315 16.9578 87.5821 17.3852C88.8639 17.7978 90.0279 18.3577 91.074 19.0651C92.1348 19.7577 93.0852 20.5681 93.925 21.4965C94.7648 22.4101 95.4868 23.3606 96.0909 24.3479L94.2123 25.6079C93.623 24.4732 92.9452 23.4859 92.179 22.6459C91.4129 21.7912 90.6099 21.0839 89.7701 20.5239C88.945 19.964 88.1199 19.544 87.2948 19.264C86.4697 18.984 85.6961 18.844 84.9742 18.844Z" fill="#0A47E5"/>
<path d="M104.6 17.4073H113.926C116.46 17.4073 118.811 17.6946 120.976 18.2693C123.142 18.8293 125.013 19.7061 126.59 20.8997C128.167 22.0786 129.397 23.5743 130.281 25.3868C131.18 27.1846 131.629 29.3213 131.629 31.797C131.629 33.86 131.268 35.7978 130.546 37.6104C129.824 39.4229 128.756 41.007 127.341 42.3627C125.942 43.7037 124.21 44.7647 122.148 45.5457C120.1 46.3267 117.75 46.7172 115.098 46.7172H104.6V17.4073ZM108.644 44.5731H114.324C116.048 44.5731 117.661 44.3005 119.164 43.7553C120.667 43.21 121.978 42.3996 123.098 41.3238C124.233 40.2481 125.124 38.9292 125.772 37.3672C126.421 35.7905 126.745 33.9706 126.745 31.9075C126.745 30.095 126.435 28.4372 125.816 26.9341C125.212 25.4163 124.358 24.1122 123.253 23.0217C122.162 21.9312 120.859 21.0839 119.341 20.4797C117.823 19.8755 116.158 19.5735 114.346 19.5735H108.644V44.5731Z" fill="#0A47E5"/>
<path d="M139.453 17.4073L149.818 32.5706L160.117 17.4073H162.725L150.989 34.6926V46.7172H146.945V34.5158L135.165 17.4073H139.453Z" fill="#0A47E5"/>
<defs>
<clipPath id="clip0_9_21">
<rect width="56.6" height="64.1466" fill="white"/>
</clipPath>
</defs>
</svg>
