<svg width="62" height="62" viewBox="0 0 62 62" fill="none" xmlns="http://www.w3.org/2000/svg">
<circle cx="31" cy="31" r="30" stroke="#0A47E5" stroke-width="2"/>
<path fill-rule="evenodd" clip-rule="evenodd" d="M24.8851 9.70264H28.5878V10.5624C28.5878 13.0364 31.579 14.2754 33.3284 12.526L33.9364 11.9181L36.5546 14.5362L35.9464 15.1444C34.197 16.8938 35.436 19.8851 37.9101 19.8851H38.7702V23.5878H37.9101C35.436 23.5878 34.197 26.579 35.9464 28.3284L36.5546 28.9366L33.9364 31.5548L33.3284 30.9468C31.579 29.1974 28.5878 30.4364 28.5878 32.9105V33.7702H24.8851V32.9101C24.8851 30.436 21.8938 29.197 20.1444 30.9464L19.5363 31.5545L16.918 28.9364L17.526 28.3284C19.2754 26.579 18.0364 23.5878 15.5623 23.5878H14.7026V19.8851H15.5624C18.0364 19.8851 19.2754 16.8938 17.526 15.1444L16.9181 14.5364L19.5363 11.9183L20.1444 12.5264C21.8938 14.2758 24.8851 13.0368 24.8851 10.5628V9.70264ZM26.7364 27.2905C29.8038 27.2905 32.2905 24.8038 32.2905 21.7364C32.2905 18.669 29.8038 16.1824 26.7364 16.1824C23.669 16.1824 21.1824 18.669 21.1824 21.7364C21.1824 24.8038 23.669 27.2905 26.7364 27.2905Z" fill="#0A47E5"/>
<circle cx="26.7365" cy="21.7365" r="14.7365" stroke="#0A47E5" stroke-width="2"/>
<line x1="31.8321" y1="35.4453" x2="35.5347" y2="40.9993" stroke="#0A47E5" stroke-width="2"/>
<line x1="36.8321" y1="33.4453" x2="40.5347" y2="38.9993" stroke="#0A47E5" stroke-width="2"/>
<path d="M33.2163 40.5579L40.6528 35.6216L49.1229 48.3819C50.0392 49.7624 49.663 51.6242 48.2826 52.5405L45.8451 54.1585C44.4646 55.0748 42.6028 54.6986 41.6865 53.3182L33.2163 40.5579Z" fill="#0A47E5"/>
</svg>
