<svg width="62" height="62" viewBox="0 0 62 62" fill="none" xmlns="http://www.w3.org/2000/svg">
<circle cx="31" cy="31" r="30" stroke="#0A47E5" stroke-width="2"/>
<path fill-rule="evenodd" clip-rule="evenodd" d="M48.7552 31.4909C49.0179 30.8896 49.1637 30.2254 49.1637 29.5273C49.1637 26.816 46.9658 24.6182 44.2546 24.6182C41.5434 24.6182 39.3455 26.816 39.3455 29.5273C39.3455 30.2254 39.4913 30.8896 39.754 31.4909H31.491V38.445C31.8102 38.3914 32.1382 38.3636 32.4727 38.3636C35.7262 38.3636 38.3636 41.001 38.3636 44.2545C38.3636 47.5079 35.7262 50.1454 32.4727 50.1454C32.1382 50.1454 31.8102 50.1175 31.491 50.0639V58C34.9722 58 38.4193 57.3143 41.6356 55.9821C44.8518 54.6499 47.7741 52.6972 50.2357 50.2356C52.6973 47.7741 54.65 44.8517 55.9822 41.6355C57.3144 38.4193 58.0001 34.9721 58.0001 31.4909H48.7552Z" fill="#0A47E5"/>
<path fill-rule="evenodd" clip-rule="evenodd" d="M13.2448 30.5091C12.9821 31.1104 12.8363 31.7746 12.8363 32.4727C12.8363 35.184 15.0342 37.3818 17.7454 37.3818C20.4566 37.3818 22.6545 35.184 22.6545 32.4727C22.6545 31.7746 22.5087 31.1104 22.246 30.5091L30.509 30.5091L30.509 23.555C30.1898 23.6086 29.8618 23.6364 29.5273 23.6364C26.2738 23.6364 23.6364 20.999 23.6364 17.7455C23.6364 14.4921 26.2738 11.8546 29.5273 11.8546C29.8618 11.8546 30.1898 11.8825 30.509 11.9361L30.509 4.00002C27.0278 4.00002 23.5807 4.6857 20.3644 6.01791C17.1482 7.35011 14.2259 9.30276 11.7643 11.7644C9.30268 14.226 7.35003 17.1483 6.01783 20.3645C4.68562 23.5808 3.99994 27.0279 3.99994 30.5091L13.2448 30.5091Z" fill="#0A47E5"/>
<mask id="path-4-inside-1_23_70" fill="white">
<path fill-rule="evenodd" clip-rule="evenodd" d="M31.4909 13.2448C30.8896 12.9821 30.2254 12.8363 29.5273 12.8363C26.816 12.8363 24.6182 15.0342 24.6182 17.7454C24.6182 20.4566 26.816 22.6545 29.5273 22.6545C30.2254 22.6545 30.8896 22.5087 31.4909 22.246L31.4909 30.509L38.445 30.509C38.3914 30.1898 38.3636 29.8618 38.3636 29.5273C38.3636 26.2738 41.001 23.6364 44.2545 23.6364C47.5079 23.6364 50.1454 26.2738 50.1454 29.5273C50.1454 29.8618 50.1175 30.1898 50.0639 30.509L58 30.509C58 27.0278 57.3143 23.5807 55.9821 20.3644C54.6499 17.1482 52.6972 14.2259 50.2356 11.7643C47.774 9.30268 44.8517 7.35003 41.6355 6.01783C38.4192 4.68562 34.9721 3.99994 31.4909 3.99994L31.4909 13.2448Z"/>
</mask>
<path d="M31.4909 13.2448L31.0905 14.1611L32.4909 14.773L32.4909 13.2448L31.4909 13.2448ZM31.4909 22.246L32.4909 22.246L32.4909 20.7178L31.0905 21.3297L31.4909 22.246ZM31.4909 30.509L30.4909 30.509L30.4909 31.509L31.4909 31.509L31.4909 30.509ZM38.445 30.509L38.445 31.509L39.6267 31.509L39.4312 30.3436L38.445 30.509ZM50.0639 30.509L49.0777 30.3436L48.8822 31.509L50.0639 31.509L50.0639 30.509ZM58 30.509L58 31.509L59 31.509L59 30.509L58 30.509ZM55.9821 20.3644L55.0582 20.7471L55.0582 20.7471L55.9821 20.3644ZM41.6355 6.01783L41.2528 6.94171L41.2528 6.94171L41.6355 6.01783ZM31.4909 3.99994L31.4909 2.99994L30.4909 2.99994L30.4909 3.99994L31.4909 3.99994ZM29.5273 13.8363C30.0851 13.8363 30.6131 13.9525 31.0905 14.1611L31.8913 12.3284C31.1661 12.0116 30.3658 11.8363 29.5273 11.8363L29.5273 13.8363ZM25.6182 17.7454C25.6182 15.5865 27.3683 13.8363 29.5273 13.8363L29.5273 11.8363C26.2638 11.8363 23.6182 14.4819 23.6182 17.7454L25.6182 17.7454ZM29.5273 21.6545C27.3683 21.6545 25.6182 19.9043 25.6182 17.7454L23.6182 17.7454C23.6182 21.0089 26.2638 23.6545 29.5273 23.6545L29.5273 21.6545ZM31.0905 21.3297C30.6131 21.5383 30.0851 21.6545 29.5273 21.6545L29.5273 23.6545C30.3658 23.6545 31.1661 23.4792 31.8913 23.1624L31.0905 21.3297ZM30.4909 22.246L30.4909 30.509L32.4909 30.509L32.4909 22.246L30.4909 22.246ZM31.4909 31.509L38.445 31.509L38.445 29.509L31.4909 29.509L31.4909 31.509ZM39.4312 30.3436C39.3868 30.0788 39.3636 29.8061 39.3636 29.5273L37.3636 29.5273C37.3636 29.9174 37.3961 30.3008 37.4588 30.6745L39.4312 30.3436ZM39.3636 29.5273C39.3636 26.8261 41.5533 24.6364 44.2545 24.6364L44.2545 22.6364C40.4487 22.6364 37.3636 25.7215 37.3636 29.5273L39.3636 29.5273ZM44.2545 24.6364C46.9556 24.6364 49.1454 26.8261 49.1454 29.5273L51.1454 29.5273C51.1454 25.7215 48.0602 22.6364 44.2545 22.6364L44.2545 24.6364ZM49.1454 29.5273C49.1454 29.8061 49.1221 30.0788 49.0777 30.3436L51.0502 30.6745C51.1129 30.3007 51.1454 29.9174 51.1454 29.5273L49.1454 29.5273ZM50.0639 31.509L58 31.509L58 29.509L50.0639 29.509L50.0639 31.509ZM59 30.509C59 26.8965 58.2884 23.3193 56.906 19.9818L55.0582 20.7471C56.3402 23.842 57 27.1591 57 30.509L59 30.509ZM56.906 19.9818C55.5235 16.6442 53.4972 13.6116 50.9428 11.0572L49.5285 12.4714C51.8973 14.8401 53.7763 17.6522 55.0582 20.7471L56.906 19.9818ZM50.9428 11.0572C48.3883 8.50271 45.3557 6.47641 42.0182 5.09395L41.2528 6.94171C44.3477 8.22366 47.1598 10.1026 49.5285 12.4714L50.9428 11.0572ZM42.0182 5.09395C38.6806 3.71149 35.1034 2.99994 31.4909 2.99994L31.4909 4.99994C34.8408 4.99994 38.1579 5.65975 41.2528 6.94171L42.0182 5.09395ZM30.4909 3.99994L30.4909 13.2448L32.4909 13.2448L32.4909 3.99994L30.4909 3.99994Z" fill="#0A47E5" mask="url(#path-4-inside-1_23_70)"/>
<path fill-rule="evenodd" clip-rule="evenodd" d="M30.5091 48.7552C31.1104 49.0179 31.7746 49.1637 32.4727 49.1637C35.184 49.1637 37.3818 46.9658 37.3818 44.2546C37.3818 41.5434 35.184 39.3455 32.4727 39.3455C31.7746 39.3455 31.1104 39.4913 30.5091 39.754L30.5091 31.491L23.555 31.491C23.6086 31.8102 23.6364 32.1382 23.6364 32.4727C23.6364 35.7262 20.999 38.3636 17.7455 38.3636C14.4921 38.3636 11.8546 35.7262 11.8546 32.4727C11.8546 32.1382 11.8825 31.8102 11.9361 31.491L4.00002 31.491C4.00002 34.9722 4.6857 38.4193 6.01791 41.6356C7.35011 44.8518 9.30276 47.7741 11.7644 50.2357C14.226 52.6973 17.1483 54.65 20.3645 55.9822C23.5808 57.3144 27.0279 58.0001 30.5091 58.0001L30.5091 48.7552Z" fill="#0A47E5"/>
</svg>
