<svg width="28" height="27" viewBox="0 0 28 27" fill="none" xmlns="http://www.w3.org/2000/svg">
<path fill-rule="evenodd" clip-rule="evenodd" d="M22.5504 5.17641C21.4656 4.09107 20.1768 3.23102 18.7583 2.64577C17.3397 2.06052 15.8195 1.76162 14.2849 1.76629C7.845 1.76629 2.60253 6.98257 2.59991 13.3953C2.59706 15.4372 3.13531 17.4435 4.15987 19.2098L2.50195 25.2338L8.69622 23.6167C10.4108 24.5456 12.3302 25.0317 14.2802 25.0311H14.2849C20.7244 25.0311 25.9663 19.8143 25.9694 13.4021C25.9733 11.8728 25.6731 10.358 25.0861 8.94584C24.4991 7.53368 23.6372 6.25235 22.5504 5.17641ZM14.2849 23.0683H14.2807C12.5424 23.0688 10.8356 22.6036 9.33791 21.721L8.98327 21.5115L5.30757 22.4711L6.2887 18.9044L6.0577 18.5377C5.08567 16.9988 4.57068 15.2155 4.57264 13.3953C4.57264 8.06637 8.93142 3.73064 14.2886 3.73064C16.8585 3.72605 19.325 4.74243 21.1456 6.55623C22.9661 8.37003 23.9917 10.8327 23.9967 13.4026C23.9946 18.732 19.6379 23.0683 14.2849 23.0683ZM19.6117 15.8295C19.32 15.6839 17.8831 14.9809 17.617 14.884C17.3509 14.7871 17.1545 14.7384 16.9601 15.0296C16.7658 15.3209 16.2058 15.9725 16.0356 16.1689C15.8653 16.3654 15.6951 16.3868 15.4033 16.2412C15.1115 16.0956 14.1702 15.7892 13.055 14.7991C12.187 14.0286 11.6014 13.0773 11.4311 12.7866C11.2609 12.4959 11.4128 12.3382 11.5589 12.1936C11.6904 12.0632 11.8507 11.8542 11.9969 11.6844C12.143 11.5147 12.1917 11.3932 12.2886 11.1994C12.3855 11.0056 12.3373 10.8358 12.2645 10.6907C12.1917 10.5456 11.6077 9.11507 11.3646 8.5331C11.1273 7.96632 10.8869 8.04332 10.7077 8.03441C10.5375 8.02603 10.341 8.02394 10.1477 8.02394C9.99998 8.02778 9.85459 8.06205 9.72066 8.1246C9.58673 8.18715 9.46713 8.27663 9.36934 8.38747C9.10166 8.67872 8.34735 9.38275 8.34735 10.8117C8.34735 12.2408 9.395 13.6237 9.53958 13.8175C9.68416 14.0113 11.5982 16.9463 14.5269 18.2051C15.0708 18.438 15.6264 18.6422 16.1917 18.8169C16.891 19.0379 17.5274 19.007 18.0303 18.9321C18.5913 18.8488 19.7589 18.2292 20.0015 17.5503C20.244 16.8714 20.2445 16.2899 20.1717 16.1689C20.0989 16.0479 19.904 15.9746 19.6117 15.8295Z" fill="white"/>
</svg>
